HIERARCHY
ROOT hips
{
	OFFSET -0.003675 0.299928 -0.021708
	CHANNELS 6 Xposition Yposition Zposition Xrotation Yrotation Zrotation
	JOINT LowerBack
	{
		OFFSET 0.000919 0.177588 0.009275
		CHANNELS 3 Xrotation Yrotation Zrotation
		JOINT spine
		{
			OFFSET 0.000919 0.177588 0.009275
			CHANNELS 3 Xrotation Yrotation Zrotation
			JOINT chest
			{
				OFFSET 0.000456 0.100015 0.004638
				CHANNELS 3 Xrotation Yrotation Zrotation
				JOINT neck
				{
					OFFSET 0.000456 0.100015 0.004638
					CHANNELS 3 Xrotation Yrotation Zrotation
					JOINT head
					{
						OFFSET 0.000924 0.155147 0.009274
						CHANNELS 6 Xposition Yposition Zposition Xrotation Yrotation Zrotation
						End Site
						{
							OFFSET 0.000000 0.153400 0.000000
						}
					}
				}
				JOINT shoulder.L
				{
					OFFSET 0.019937 0.078966 0.057518
					CHANNELS 6 Xposition Yposition Zposition Yrotation Xrotation Zrotation
					JOINT upper_arm.L
					{
						OFFSET 0.177024 -0.020465 -0.095062
						CHANNELS 6 Xposition Yposition Zposition Xrotation Yrotation Zrotation
						JOINT forearm.L
						{
							OFFSET 0.247100 -0.135500 -0.061800
							CHANNELS 3 Xrotation Yrotation Zrotation
							JOINT hand.L
							{
								OFFSET 0.217000 -0.143000 0.039300
								CHANNELS 3 Xrotation Yrotation Zrotation
								JOINT palm.01.L
								{
									OFFSET 0.021770 -0.038291 0.012954
									CHANNELS 6 Xposition Yposition Zposition Yrotation Xrotation Zrotation
									JOINT f_index.01.L
									{
										OFFSET 0.053215 -0.044137 0.008236
										CHANNELS 3 Xrotation Yrotation Zrotation
										JOINT f_index.02.L
										{
											OFFSET 0.036108 -0.024723 -0.010656
											CHANNELS 3 Xrotation Yrotation Zrotation
											JOINT f_index.03.L
											{
												OFFSET 0.021342 -0.014948 -0.010846
												CHANNELS 3 Xrotation Yrotation Zrotation
												End Site
												{
													OFFSET 0.015600 -0.009860 -0.013421
												}
											}
										}
									}
									JOINT thumb.01.L
									{
										OFFSET -0.009090 -0.002348 -0.024223
										CHANNELS 6 Xposition Yposition Zposition Xrotation Yrotation Zrotation
										JOINT thumb.02.L
										{
											OFFSET 0.019713 -0.035076 -0.011120
											CHANNELS 3 Xrotation Yrotation Zrotation
											JOINT thumb.03.L
											{
												OFFSET 0.024877 -0.021748 -0.005176
												CHANNELS 3 Xrotation Yrotation Zrotation
												End Site
												{
													OFFSET 0.016125 -0.013029 -0.001569
												}
											}
										}
									}
								}
								JOINT palm.02.L
								{
									OFFSET 0.032823 -0.025104 0.012281
									CHANNELS 6 Xposition Yposition Zposition Yrotation Xrotation Zrotation
									JOINT f_middle.01.L
									{
										OFFSET 0.055723 -0.038469 0.008037
										CHANNELS 3 Xrotation Yrotation Zrotation
										JOINT f_middle.02.L
										{
											OFFSET 0.038167 -0.027473 -0.015582
											CHANNELS 3 Xrotation Yrotation Zrotation
											JOINT f_middle.03.L
											{
												OFFSET 0.021707 -0.016587 -0.017037
												CHANNELS 3 Xrotation Yrotation Zrotation
												End Site
												{
													OFFSET 0.014112 -0.010584 -0.014294
												}
											}
										}
									}
								}
								JOINT palm.03.L
								{
									OFFSET 0.039230 -0.011402 0.008390
									CHANNELS 6 Xposition Yposition Zposition Yrotation Xrotation Zrotation
									JOINT f_ring.01.L
									{
										OFFSET 0.061796 -0.031470 0.007910
										CHANNELS 3 Xrotation Yrotation Zrotation
										JOINT f_ring.02.L
										{
											OFFSET 0.033092 -0.023401 -0.019127
											CHANNELS 3 Xrotation Yrotation Zrotation
											JOINT f_ring.03.L
											{
												OFFSET 0.021392 -0.015362 -0.017824
												CHANNELS 3 Xrotation Yrotation Zrotation
												End Site
												{
													OFFSET 0.008670 -0.007297 -0.014686
												}
											}
										}
									}
								}
								JOINT palm.04.L
								{
									OFFSET 0.043417 0.002450 0.002889
									CHANNELS 6 Xposition Yposition Zposition Yrotation Xrotation Zrotation
									JOINT f_pinky.01.L
									{
										OFFSET 0.069986 -0.026156 0.003627
										CHANNELS 3 Xrotation Yrotation Zrotation
										JOINT f_pinky.02.L
										{
											OFFSET 0.018520 -0.012813 -0.016429
											CHANNELS 3 Xrotation Yrotation Zrotation
											JOINT f_pinky.03.L
											{
												OFFSET 0.013822 -0.009796 -0.014947
												CHANNELS 3 Xrotation Yrotation Zrotation
												End Site
												{
													OFFSET 0.007238 -0.006103 -0.011657
												}
											}
										}
									}
								}
							}
						}
					}
				}
				JOINT shoulder.R
				{
					OFFSET -0.016662 0.078957 0.057696
					CHANNELS 6 Xposition Yposition Zposition Yrotation Xrotation Zrotation
					JOINT upper_arm.R
					{
						OFFSET -0.176972 -0.020537 -0.095144
						CHANNELS 6 Xposition Yposition Zposition Xrotation Yrotation Zrotation
						JOINT forearm.R
						{
							OFFSET -0.247100 -0.135500 -0.061800
							CHANNELS 3 Xrotation Yrotation Zrotation
							JOINT hand.R
							{
								OFFSET -0.217000 -0.143000 0.039300
								CHANNELS 3 Xrotation Yrotation Zrotation
								JOINT palm.01.R
								{
									OFFSET -0.021773 -0.038278 0.012988
									CHANNELS 6 Xposition Yposition Zposition Yrotation Xrotation Zrotation
									JOINT f_index.01.R
									{
										OFFSET -0.053212 -0.044139 0.008249
										CHANNELS 3 Xrotation Yrotation Zrotation
										JOINT f_index.02.R
										{
											OFFSET -0.036049 -0.024835 -0.010634
											CHANNELS 3 Xrotation Yrotation Zrotation
											JOINT f_index.03.R
											{
												OFFSET -0.021371 -0.014881 -0.010866
												CHANNELS 3 Xrotation Yrotation Zrotation
												End Site
												{
													OFFSET -0.015584 -0.009883 -0.013422
												}
											}
										}
									}
									JOINT thumb.01.R
									{
										OFFSET 0.009113 -0.002381 -0.024211
										CHANNELS 6 Xposition Yposition Zposition Xrotation Yrotation Zrotation
										JOINT thumb.02.R
										{
											OFFSET -0.019694 -0.035097 -0.011088
											CHANNELS 3 Xrotation Yrotation Zrotation
											JOINT thumb.03.R
											{
												OFFSET -0.024867 -0.021762 -0.005168
												CHANNELS 3 Xrotation Yrotation Zrotation
												End Site
												{
													OFFSET -0.016120 -0.013036 -0.001565
												}
											}
										}
									}
								}
								JOINT palm.02.R
								{
									OFFSET -0.032828 -0.025095 0.012286
									CHANNELS 6 Xposition Yposition Zposition Yrotation Xrotation Zrotation
									JOINT f_middle.01.R
									{
										OFFSET -0.055721 -0.038472 0.008040
										CHANNELS 3 Xrotation Yrotation Zrotation
										JOINT f_middle.02.R
										{
											OFFSET -0.038101 -0.027593 -0.015557
											CHANNELS 3 Xrotation Yrotation Zrotation
											JOINT f_middle.03.R
											{
												OFFSET -0.021730 -0.016530 -0.017054
												CHANNELS 3 Xrotation Yrotation Zrotation
												End Site
												{
													OFFSET -0.014096 -0.010608 -0.014293
												}
											}
										}
									}
								}
								JOINT palm.03.R
								{
									OFFSET -0.039192 -0.011488 0.008390
									CHANNELS 6 Xposition Yposition Zposition Yrotation Xrotation Zrotation
									JOINT f_ring.01.R
									{
										OFFSET -0.061839 -0.031387 0.007876
										CHANNELS 3 Xrotation Yrotation Zrotation
										JOINT f_ring.02.R
										{
											OFFSET -0.033068 -0.023437 -0.019125
											CHANNELS 3 Xrotation Yrotation Zrotation
											JOINT f_ring.03.R
											{
												OFFSET -0.021371 -0.015393 -0.017822
												CHANNELS 3 Xrotation Yrotation Zrotation
												End Site
												{
													OFFSET -0.008654 -0.007321 -0.014684
												}
											}
										}
									}
								}
								JOINT palm.04.R
								{
									OFFSET -0.043421 0.002443 0.002845
									CHANNELS 6 Xposition Yposition Zposition Yrotation Xrotation Zrotation
									JOINT f_pinky.01.R
									{
										OFFSET -0.069983 -0.026169 0.003599
										CHANNELS 3 Xrotation Yrotation Zrotation
										JOINT f_pinky.02.R
										{
											OFFSET -0.018501 -0.012842 -0.016428
											CHANNELS 3 Xrotation Yrotation Zrotation
											JOINT f_pinky.03.R
											{
												OFFSET -0.013806 -0.009821 -0.014946
												CHANNELS 3 Xrotation Yrotation Zrotation
												End Site
												{
													OFFSET -0.007226 -0.006121 -0.011655
												}
											}
										}
									}
								}
							}
						}
					}
				}
			}
		}
	}
	JOINT pelvis.L
	{
		OFFSET 0.000000 0.000000 0.000000
		CHANNELS 6 Xposition Yposition Zposition Xrotation Yrotation Zrotation
		JOINT thigh.L
		{
			OFFSET 0.101675 0.001054 -0.000000
			CHANNELS 3 Xrotation Yrotation Zrotation
			JOINT shin.L
			{
				OFFSET 0.000000 -0.534800 0.041000
				CHANNELS 3 Xrotation Yrotation Zrotation
				JOINT foot.L
				{
					OFFSET 0.000000 -0.452000 -0.044800
					CHANNELS 3 Xrotation Yrotation Zrotation
					JOINT toe.L
					{
						OFFSET -0.000000 -0.068500 0.109600
						CHANNELS 3 Xrotation Yrotation Zrotation
						End Site
						{
							OFFSET -0.000000 0.000000 0.067200
						}
					}
				}
				JOINT heel.L
				{
					OFFSET 0.000000 -0.452000 -0.044800
					CHANNELS 3 Xrotation Yrotation Zrotation
					JOINT heel.02.L
					{
						OFFSET -0.038000 -0.085200 0.016200
						CHANNELS 6 Xposition Yposition Zposition Xrotation Yrotation Zrotation
						End Site
						{
							OFFSET 0.080000 -0.000000 0.000000
						}
					}
				}
			}
		}
	}
	JOINT pelvis.R
	{
		OFFSET 0.000000 0.000000 0.000000
		CHANNELS 6 Xposition Yposition Zposition Xrotation Yrotation Zrotation
		JOINT thigh.R
		{
			OFFSET -0.094325 0.001054 0.000000
			CHANNELS 3 Xrotation Yrotation Zrotation
			JOINT shin.R
			{
				OFFSET 0.000000 -0.534800 0.041000
				CHANNELS 3 Xrotation Yrotation Zrotation
				JOINT foot.R
				{
					OFFSET 0.000000 -0.452000 -0.044800
					CHANNELS 3 Xrotation Yrotation Zrotation
					JOINT toe.R
					{
						OFFSET -0.000000 -0.068500 0.109600
						CHANNELS 3 Xrotation Yrotation Zrotation
						End Site
						{
							OFFSET -0.000000 0.000000 0.067200
						}
					}
				}
				JOINT heel.R
				{
					OFFSET 0.000000 -0.452000 -0.044800
					CHANNELS 3 Xrotation Yrotation Zrotation
					JOINT heel.02.R
					{
						OFFSET 0.038000 -0.085200 0.016200
						CHANNELS 6 Xposition Yposition Zposition Xrotation Yrotation Zrotation
						End Site
						{
							OFFSET -0.080000 0.000000 -0.000000
						}
					}
				}
			}
		}
	}
}
MOTION
Frames: 4
Frame Time: 0.041667
-0.003675 0.299928 -0.021708 0.000000 -0.000000 0.000000 -0.000001 0.000000 0.000000 -0.000000 0.000000 0.000000 -0.000000 0.000000 0.000000 -0.000000 -0.000000 -0.000000 0.000924 0.155147 0.009274 -0.000001 -0.000000 -0.000000 0.019937 0.078966 0.057518 0.000001 0.000001 -0.000005 0.177024 -0.020465 -0.095062 -0.000006 -0.000003 0.000015 -0.000009 -0.000004 -0.000009 -0.000000 0.000000 0.000001 0.021770 -0.038291 0.012954 0.000001 -0.000001 0.000001 -0.000001 -0.000001 -0.000002 -0.000001 -0.000000 0.000007 -0.000000 0.000000 0.000003 -0.009090 -0.002348 -0.024224 -0.000002 0.000001 0.000001 0.000001 -0.000001 0.000001 -0.000000 0.000000 -0.000001 0.032823 -0.025104 0.012281 0.000000 -0.000000 0.000000 0.000001 0.000004 -0.000003 -0.000001 -0.000000 -0.000000 -0.000001 -0.000003 0.000003 0.039230 -0.011402 0.008390 -0.000000 -0.000000 0.000008 0.000001 0.000001 -0.000000 -0.000001 0.000003 -0.000001 0.000002 0.000002 -0.000000 0.043417 0.002450 0.002889 -0.000000 0.000001 0.000002 -0.000001 -0.000003 0.000001 -0.000000 0.000003 -0.000000 -0.000000 -0.000003 0.000001 -0.016662 0.078956 0.057696 -0.000001 0.000002 0.000011 -0.176972 -0.020537 -0.095144 0.000001 -0.000003 -0.000005 -0.000006 0.000005 -0.000014 -0.000001 -0.000000 0.000000 -0.021773 -0.038278 0.012988 0.000000 -0.000001 -0.000003 -0.000001 0.000001 -0.000003 -0.000001 -0.000000 0.000001 0.000001 0.000002 0.000007 0.009113 -0.002381 -0.024211 0.000002 -0.000001 0.000004 -0.000000 0.000001 0.000002 0.000000 0.000000 -0.000003 -0.032828 -0.025095 0.012286 0.000001 -0.000001 -0.000001 -0.000001 0.000003 -0.000003 -0.000002 0.000004 -0.000001 0.000001 -0.000002 -0.000000 -0.039192 -0.011488 0.008390 0.000000 0.000000 0.000001 -0.000000 0.000003 -0.000003 -0.000001 0.000001 0.000002 -0.000001 0.000000 -0.000003 -0.043421 0.002443 0.002844 -0.000000 -0.000001 0.000000 -0.000007 0.000003 -0.000002 -0.000003 -0.000000 -0.000000 0.000001 -0.000000 0.000001 -0.000000 0.000000 -0.000000 -0.000001 -0.000000 0.000001 0.000009 -0.000202 0.000014 -0.000026 0.000202 -0.000015 0.000000 -0.000000 -0.000000 0.000002 -0.000000 -0.000000 0.000000 0.000000 -0.000000 -0.038000 -0.085200 0.016200 0.000000 0.000000 0.000000 0.000000 -0.000000 -0.000000 -0.000001 0.000000 -0.000004 0.000008 -0.000013 0.000005 -0.000012 0.000013 -0.000001 -0.000003 -0.000000 -0.000000 0.000000 -0.000000 -0.000000 0.000002 -0.000000 -0.000000 0.038000 -0.085200 0.016200 0.000002 -0.000000 0.000000 
-0.001680 0.263530 -0.017882 -3.432968 -45.248955 -3.397928 -0.000001 -0.000003 -0.000000 -0.000000 -0.000000 -0.000000 0.000000 -0.000000 -0.000000 0.000001 -0.000001 0.000000 0.000924 0.155147 0.009274 -6.701960 0.022379 -2.105705 0.019937 0.078966 0.057518 -7.032306 9.733094 56.329817 0.177025 -0.020465 -0.095062 -6.461674 -30.391603 18.085101 0.845361 6.336042 29.620273 -0.000001 0.000001 0.000005 0.021770 -0.038291 0.012954 0.000002 -0.000003 -0.000000 0.000001 0.000000 -0.000000 -0.000003 0.000005 0.000005 -0.000001 0.000004 0.000002 -0.009090 -0.002348 -0.024224 0.000003 0.000001 -0.000001 0.000001 -0.000003 0.000001 0.000001 0.000000 0.000003 0.032823 -0.025104 0.012281 -0.000003 -0.000004 0.000002 0.000002 -0.000001 -0.000003 -0.000001 -0.000005 0.000003 0.000003 -0.000006 0.000000 0.039230 -0.011402 0.008390 -0.000002 -0.000003 0.000003 0.000000 0.000001 0.000001 0.000001 0.000005 -0.000002 0.000002 0.000001 0.000002 0.043417 0.002450 0.002889 -0.000001 -0.000002 -0.000005 -0.000001 -0.000001 -0.000002 -0.000000 0.000001 -0.000001 -0.000002 0.000003 -0.000002 -0.016662 0.078956 0.057696 -13.182166 8.990120 -40.296545 -0.176972 -0.020537 -0.095144 -20.228333 14.700681 7.235794 -3.771165 15.757026 -23.895680 0.000002 -0.000002 -0.000006 -0.021773 -0.038278 0.012988 0.000000 -0.000001 0.000000 -0.000000 0.000003 0.000002 0.000001 -0.000002 -0.000006 -0.000001 0.000000 0.000004 0.009114 -0.002381 -0.024211 -0.000003 0.000002 0.000003 -0.000001 -0.000002 -0.000001 0.000002 0.000000 -0.000003 -0.032828 -0.025095 0.012286 0.000002 -0.000000 -0.000001 -0.000002 0.000003 -0.000003 0.000001 -0.000001 -0.000005 -0.000008 0.000004 -0.000000 -0.039192 -0.011488 0.008390 -0.000001 0.000001 -0.000000 0.000001 0.000003 0.000002 0.000002 0.000001 -0.000003 -0.000000 0.000000 -0.000003 -0.043421 0.002443 0.002845 0.000000 0.000002 0.000000 -0.000001 0.000003 -0.000001 -0.000003 -0.000001 -0.000002 -0.000001 -0.000000 0.000002 0.000000 0.000000 -0.000000 -1.420406 0.267165 -4.486637 4.882746 -0.445389 -5.816384 41.133827 1.403349 -14.307808 -0.000002 -0.000000 -0.000002 -0.000000 -0.000004 0.000003 0.000003 0.000001 -0.000001 -0.038000 -0.085200 0.016200 0.000000 0.000001 -0.000002 -0.000000 0.000000 -0.000000 -1.382002 0.264560 -3.252644 -12.631692 -0.299646 -5.061127 87.292864 -1.585662 16.220070 0.000000 0.000000 -0.000002 0.000002 0.000000 -0.000002 0.000002 -0.000001 -0.000001 0.038000 -0.085200 0.016200 -0.000001 -0.000002 0.000000 
0.001531 0.281340 -0.021613 -8.327318 -43.019263 -8.453641 -0.000000 -0.000000 -0.000000 -0.000000 0.000003 0.000001 0.000000 0.000002 -0.000000 0.000000 0.000002 -0.000000 0.000924 0.155148 0.009274 -6.030234 0.017478 -4.794586 0.019937 0.078966 0.057518 -10.811888 11.332563 56.702212 0.177024 -0.020465 -0.095062 -4.115324 -29.118268 19.929850 0.566410 3.493964 18.239049 -0.000005 0.000002 0.000003 0.021770 -0.038291 0.012954 -0.000002 0.000003 0.000003 -0.000001 -0.000003 0.000003 -0.000002 0.000001 0.000005 -0.000000 0.000004 -0.000000 -0.009090 -0.002348 -0.024223 0.000001 -0.000003 0.000001 -0.000000 0.000000 -0.000000 -0.000004 -0.000001 0.000001 0.032823 -0.025104 0.012281 -0.000002 0.000002 0.000007 0.000001 -0.000002 -0.000009 -0.000005 -0.000006 -0.000001 -0.000001 0.000001 0.000003 0.039230 -0.011402 0.008390 -0.000003 0.000001 0.000008 0.000001 0.000006 0.000001 0.000001 0.000005 0.000001 0.000002 -0.000004 0.000002 0.043417 0.002450 0.002889 0.000000 0.000001 0.000005 -0.000001 -0.000003 -0.000000 -0.000000 0.000004 -0.000003 0.000002 -0.000002 -0.000001 -0.016662 0.078956 0.057696 -15.496395 10.702128 -40.216468 -0.176972 -0.020537 -0.095144 -18.302971 19.734013 2.247940 0.292944 -2.055128 -13.497758 0.000001 -0.000002 -0.000001 -0.021773 -0.038278 0.012988 -0.000002 -0.000002 -0.000003 -0.000001 0.000001 -0.000001 -0.000008 0.000005 -0.000000 0.000002 0.000002 0.000005 0.009113 -0.002381 -0.024212 0.000003 -0.000001 0.000002 -0.000001 0.000001 0.000004 0.000004 -0.000003 -0.000001 -0.032828 -0.025095 0.012286 -0.000001 0.000001 -0.000003 0.000002 0.000002 -0.000001 -0.000000 0.000002 -0.000002 -0.000002 0.000000 -0.000000 -0.039192 -0.011488 0.008390 -0.000002 0.000001 -0.000000 -0.000002 0.000003 0.000000 0.000002 0.000000 0.000005 -0.000002 0.000001 -0.000001 -0.043421 0.002443 0.002845 -0.000002 0.000000 0.000000 0.000001 0.000004 0.000001 -0.000001 -0.000006 -0.000001 0.000001 0.000004 -0.000003 0.000000 0.000000 -0.000000 -1.155034 0.248336 -4.477080 10.556511 -0.130330 -1.999802 54.455025 1.156693 -11.751923 0.000003 0.000000 0.000004 -0.000003 0.000002 0.000002 0.000003 0.000001 0.000001 -0.038000 -0.085200 0.016200 -0.000002 -0.000001 -0.000001 -0.000000 0.000000 -0.000000 -1.123437 0.246188 -3.243031 -27.171859 -0.370185 -6.853867 92.711738 -0.720832 7.295071 0.000002 -0.000000 -0.000004 0.000000 -0.000000 -0.000002 0.000007 0.000000 -0.000002 0.038000 -0.085200 0.016200 -0.000002 0.000001 -0.000001 
0.002926 0.278834 -0.022527 -9.538022 -47.856096 -9.582490 0.000000 -0.000002 -0.000000 -0.000000 0.000000 0.000000 0.000000 0.000000 -0.000000 -0.000000 0.000002 0.000000 0.000924 0.155148 0.009274 -4.629931 0.014516 -4.059258 0.019937 0.078966 0.057518 -9.094317 10.911197 54.740312 0.177024 -0.020465 -0.095062 -7.050336 -27.007939 15.684828 0.511240 3.065549 16.800455 -0.000003 0.000004 0.000001 0.021770 -0.038291 0.012954 -0.000003 -0.000001 -0.000004 -0.000003 -0.000001 0.000001 0.000000 0.000000 0.000002 -0.000002 0.000001 -0.000000 -0.009090 -0.002348 -0.024224 -0.000001 -0.000003 0.000001 0.000001 0.000000 0.000001 0.000002 0.000002 -0.000002 0.032823 -0.025104 0.012281 -0.000002 -0.000000 0.000002 -0.000003 0.000000 -0.000005 -0.000003 -0.000002 0.000003 -0.000000 -0.000004 0.000006 0.039230 -0.011402 0.008390 -0.000002 0.000000 0.000001 0.000001 0.000001 0.000001 0.000001 0.000003 -0.000001 0.000001 -0.000005 0.000005 0.043417 0.002450 0.002889 -0.000002 -0.000002 -0.000005 -0.000001 -0.000006 -0.000002 -0.000000 -0.000000 -0.000001 -0.000003 -0.000001 0.000000 -0.016662 0.078957 0.057696 -13.425662 10.225802 -40.038644 -0.176972 -0.020537 -0.095144 -18.212177 19.217728 2.452868 -0.639909 0.238694 -15.430915 0.000002 0.000002 -0.000000 -0.021773 -0.038278 0.012988 -0.000001 -0.000001 0.000002 -0.000003 0.000003 0.000004 -0.000005 -0.000001 -0.000008 -0.000005 -0.000003 0.000003 0.009113 -0.002381 -0.024211 -0.000006 0.000001 0.000003 -0.000003 -0.000001 0.000000 0.000000 0.000001 -0.000003 -0.032829 -0.025095 0.012286 -0.000001 -0.000000 0.000001 -0.000001 0.000005 0.000001 -0.000000 -0.000002 0.000001 -0.000004 0.000006 -0.000005 -0.039192 -0.011488 0.008390 -0.000002 0.000001 -0.000000 0.000001 0.000004 -0.000002 -0.000000 -0.000004 -0.000000 -0.000004 0.000004 -0.000003 -0.043421 0.002443 0.002844 -0.000002 -0.000000 0.000002 -0.000004 0.000004 -0.000002 -0.000001 -0.000003 0.000002 0.000001 -0.000002 -0.000001 0.000000 0.000000 -0.000000 -1.178005 0.254716 -4.542964 11.222666 -0.153166 -2.340604 50.768287 1.228159 -12.489713 -0.000002 -0.000001 -0.000001 0.000001 -0.000001 0.000001 0.000000 -0.000004 0.000001 -0.038000 -0.085200 0.016200 -0.000001 -0.000003 0.000002 0.000000 0.000000 -0.000000 -1.145688 0.252500 -3.308936 -33.337026 -0.430830 -8.027168 98.495487 -0.943777 9.569790 0.000000 0.000001 -0.000002 0.000002 0.000001 0.000000 0.000005 -0.000000 -0.000001 0.038000 -0.085200 0.016200 -0.000002 0.000001 -0.000000 
